<svg xmlns="http://www.w3.org/2000/svg" width="9px" height="14px" viewBox="0 0 9 14"><path id="_" data-name="$" d="M1.974-3.248H0A3.8,3.8,0,0,0,1.022-.742a3.783,3.783,0,0,0,2.45.966v1.19H4.3V.224A4.359,4.359,0,0,0,6.02-.2a3.707,3.707,0,0,0,1.071-.8,2.62,2.62,0,0,0,.553-.917A2.6,2.6,0,0,0,7.8-2.688a7.425,7.425,0,0,0-.049-.8,2.226,2.226,0,0,0-.315-.9,3.024,3.024,0,0,0-.826-.861,4.839,4.839,0,0,0-1.6-.693q-.2-.056-.371-.1L4.3-6.118V-8.6A1.033,1.033,0,0,1,5.11-8.2a1.472,1.472,0,0,1,.35.952H7.448a3.209,3.209,0,0,0-.308-1.26A2.783,2.783,0,0,0,6.454-9.4a3.178,3.178,0,0,0-.973-.56A5.033,5.033,0,0,0,4.3-10.234v-1.078H3.472v1.078a4.667,4.667,0,0,0-1.218.245,3.291,3.291,0,0,0-1.036.574A2.8,2.8,0,0,0,.5-8.5a2.782,2.782,0,0,0-.273,1.26A2.569,2.569,0,0,0,.462-6.069a2.325,2.325,0,0,0,.637.784,3.337,3.337,0,0,0,.9.5q.5.189,1.022.329.14.028.259.063t.189.063V-1.4a1.955,1.955,0,0,1-1.078-.588A1.72,1.72,0,0,1,1.974-3.248ZM4.3-1.4V-4.088a3.381,3.381,0,0,1,1.169.5.983.983,0,0,1,.343.819,1.152,1.152,0,0,1-.14.581,1.385,1.385,0,0,1-.357.413,1.641,1.641,0,0,1-.49.259A2.555,2.555,0,0,1,4.3-1.4ZM3.472-8.6v2.282a2.3,2.3,0,0,1-.966-.406.889.889,0,0,1-.294-.714,1.162,1.162,0,0,1,.1-.511A1.048,1.048,0,0,1,2.6-8.309a1.219,1.219,0,0,1,.406-.217A1.54,1.54,0,0,1,3.472-8.6Z" transform="translate(0.544 11.812)" fill="#272a37" stroke="rgba(0,0,0,0)" stroke-width="1"></path></svg>