<svg width="16" height="16" viewBox="0 0 16 16" fill="none" xmlns="http://www.w3.org/2000/svg">
<path d="M5.97263 14H3.13887C2.83706 13.9996 2.54773 13.8795 2.33432 13.6661C2.1209 13.4527 2.00082 13.1633 2.0004 12.8615V10.2233C2.00036 10.0743 2.02978 9.92687 2.08699 9.78937C2.14419 9.65186 2.22803 9.52704 2.33369 9.42208L9.41848 2.33328C9.6321 2.11987 9.92171 2 10.2237 2C10.5256 2 10.8152 2.11987 11.0288 2.33328L13.6663 4.97155C13.8797 5.18517 13.9996 5.47478 13.9996 5.77673C13.9996 6.07869 13.8797 6.36829 13.6663 6.58191L7.58219 12.6668H13.0566C13.2334 12.6668 13.403 12.7371 13.528 12.8621C13.653 12.9871 13.7232 13.1566 13.7232 13.3334C13.7232 13.5102 13.653 13.6798 13.528 13.8048C13.403 13.9298 13.2334 14 13.0566 14H5.97263ZM3.33355 12.6668H4.36306L3.33355 11.6373V12.6668ZM5.97343 12.3912L10.73 7.63466L8.36654 5.27119L3.60996 10.0278L5.97343 12.3912ZM11.6722 6.69248L12.5879 5.77673L10.2245 3.41326L9.30792 4.32901L11.6722 6.69248Z" fill="#6F7383"/>
</svg>
