<svg width="14" height="13" viewBox="0 0 14 13" fill="none" xmlns="http://www.w3.org/2000/svg">
<path fill-rule="evenodd" clip-rule="evenodd" d="M7.68574 0.667904C7.51267 0.793459 7.3477 0.934577 7.19095 1.0894L7.0626 1.22088L7 1.28989L6.9374 1.22088L6.80905 1.0894C6.6523 0.934576 6.48733 0.793458 6.31426 0.667903C5.73288 0.246143 5.06008 0 4.3 0C1.58473 0 0 2.37655 0 4.804C0 7.17851 1.19139 9.24058 3.13701 10.9002C4.50533 12.0673 6.2954 13 7 13C7.705 13 9.49499 12.0674 10.8633 10.9002C12.8088 9.24063 14 7.17852 14 4.804C14 2.37655 12.4153 0 9.7 0C8.93992 0 8.26711 0.246144 7.68574 0.667904ZM5.67538 2.21857C5.23895 1.7911 4.78989 1.6 4.3 1.6C2.75142 1.6 1.6 2.94771 1.6 4.804C1.6 6.58759 2.48098 8.23759 4.17536 9.68288C4.76665 10.1872 5.46051 10.6489 6.07374 10.9778C6.37967 11.1419 6.64224 11.2605 6.84224 11.3338C6.91231 11.3595 6.96436 11.3758 7.00009 11.386C7.03585 11.3758 7.08795 11.3595 7.1581 11.3338C7.35812 11.2605 7.62069 11.1419 7.92662 10.9778C8.53983 10.6489 9.23365 10.1873 9.82495 9.6829C11.5191 8.23772 12.4 6.58768 12.4 4.804C12.4 2.94771 11.2486 1.6 9.7 1.6C9.21011 1.6 8.76105 1.79109 8.32462 2.21857L8.228 2.31755L7 3.67143L5.77199 2.31755L5.67538 2.21857Z" fill="#6F7383"/>
</svg>
