<svg width="7" height="6" viewBox="0 0 7 6" fill="none" xmlns="http://www.w3.org/2000/svg">
<path d="M0.903052 2.48254C0.663628 2.48219 0.434098 2.58333 0.26597 2.76326C-0.0807689 3.12087 -0.0896268 3.70665 0.246123 4.07576L2.14248 5.73916C2.30254 5.90765 2.51979 6.00156 2.74583 5.99998C2.98591 5.9992 3.21597 5.89829 3.38589 5.71926L6.73106 1.57333C6.90286 1.39612 6.9998 1.15334 6.99999 0.899796C7.00131 0.660913 6.91207 0.431393 6.75213 0.262376C6.5922 0.0933586 6.37487 -0.00111312 6.14856 9.89896e-06C5.90815 0.000634795 5.67799 0.102869 5.50949 0.283877L2.79445 3.76151L1.50441 2.74231C1.34459 2.57473 1.12832 2.48093 0.903052 2.48149V2.48254Z" fill="#1EB676"/>
</svg>
