<svg width="11" height="12" viewBox="0 0 11 12" fill="none" xmlns="http://www.w3.org/2000/svg">
<path d="M8.5199 2.61917L7.81543 1.84275L8.06685 2.83537C8.06947 2.84275 8.22659 3.48157 8.06685 4.05651C7.77092 3.08107 6.95385 1.28747 4.79593 0.235878L4.30883 0L4.4162 0.501223C4.42144 0.525802 4.8902 2.87715 2.65896 5.05405C2.61706 4.60688 2.44423 4.02949 1.86022 3.67814L1.48048 3.44962L1.45692 3.87224C1.45692 3.88452 1.38098 5.14496 0.765546 6.04914C0.320341 6.70025 0.0689438 7.35134 0.0139425 7.98525C-0.0881957 9.15725 0.322963 10.8034 2.85799 11.9754L2.91299 12H3.99195L3.93695 11.973C2.34994 11.2138 2.3316 9.88943 2.36565 9.50122C2.39447 9.13513 2.53326 8.76167 2.77943 8.38821C3.08845 7.91891 3.12774 7.24815 3.13036 7.24323L3.15392 6.81081L3.53627 7.0516C3.81911 7.22849 3.98408 7.50368 4.081 7.73955C5.084 6.6339 4.7226 5.49385 4.70426 5.44226L4.51571 4.86486L5.07877 5.14988C6.09488 5.66584 6.56888 6.48895 6.78361 7.06388C6.84909 6.87714 6.88575 6.70271 6.89884 6.61424L6.9748 6.04914L7.35976 6.48895C8.42563 7.70761 8.83154 8.84028 8.56181 9.85995C8.17946 11.3096 6.58198 11.9558 6.51388 11.9828L6.46675 12H7.47499L7.52213 11.9853C7.63213 11.9435 10.2352 10.9754 10.8664 8.63882C11.3404 6.87714 10.5521 4.85258 8.5199 2.61917Z" fill="#A4AEC1"/>
</svg>
