<svg width="16" height="12" viewBox="0 0 16 12" fill="none" xmlns="http://www.w3.org/2000/svg">
<path fill-rule="evenodd" clip-rule="evenodd" d="M5.52488 0C5.13653 0 4.82171 0.350658 4.82171 0.783217C4.82171 1.21578 5.13653 1.56643 5.52488 1.56643H7.33347V3.27273H5.68644C5.51194 3.27273 5.3446 3.3412 5.22121 3.46308L4.00406 4.66538H3.33668C2.97331 4.66538 2.67875 4.95635 2.67875 5.31528V6.54545H1.50009V5.13369C1.50009 4.7084 1.16428 4.36364 0.750043 4.36364C0.335806 4.36364 0 4.7084 0 5.13369V10.084C0 10.5093 0.335806 10.8541 0.750043 10.8541C1.16428 10.8541 1.50009 10.5093 1.50009 10.084V8.08556H2.67875V9.95745C2.67875 10.3164 2.97331 10.6074 3.33668 10.6074H4.00406L5.22121 11.8096C5.3446 11.9315 5.51194 12 5.68644 12H10.8559C10.9983 12 11.1368 11.9544 11.2507 11.87L13.1305 10.4774C13.2961 10.3546 13.3936 10.162 13.3936 9.95745V8.08556H14.4999V10.084C14.4999 10.5093 14.8357 10.8541 15.25 10.8541C15.6642 10.8541 16 10.5093 16 10.084V5.13369C16 4.7084 15.6642 4.36364 15.25 4.36364C14.8357 4.36364 14.4999 4.7084 14.4999 5.13369V6.54545H13.3936V5.31528C13.3936 5.14292 13.3243 4.97761 13.2009 4.85573L11.7911 3.46308C11.6677 3.3412 11.5004 3.27273 11.3259 3.27273H8.7398V1.56643H10.5475C10.9358 1.56643 11.2507 1.21578 11.2507 0.783217C11.2507 0.350658 10.9358 0 10.5475 0H8.03664H5.52488ZM4.74181 5.77483L5.95896 4.57253H11.0533L12.0778 5.58448V9.6325L10.6366 10.7002H5.95896L4.74181 9.4979C4.61842 9.37602 4.45108 9.30754 4.27658 9.30754H3.99461V5.96518H4.27658C4.45108 5.96518 4.61842 5.89671 4.74181 5.77483Z" fill="#9CA2AA"/>
</svg>
