<svg width="131" height="40" viewBox="0 0 131 40" fill="none" xmlns="http://www.w3.org/2000/svg"><path d="M111.418 0H19.582C14.3886 0 9.40779 2.04832 5.73544 5.69435C2.0631 9.34038 0 14.2855 0 19.4417L0 20.5583C0 25.7145 2.0631 30.6596 5.73544 34.3057C9.40779 37.9517 14.3886 40 19.582 40H111.418C113.99 40 116.536 39.4971 118.912 38.5201C121.287 37.5431 123.446 36.111 125.265 34.3057C127.083 32.5003 128.525 30.3571 129.509 27.9983C130.493 25.6395 131 23.1114 131 20.5583V19.4417C131 14.2855 128.937 9.34038 125.265 5.69435C121.592 2.04832 116.611 0 111.418 0" fill="#FD4100"></path><path d="M93.4984 20.4354C93.4918 24.4278 91.8902 28.2546 89.045 31.076C86.1998 33.8974 82.3434 35.4828 78.3221 35.4845H20.3917C16.3688 35.4845 12.5102 33.8999 9.66267 31.0786C6.81514 28.2572 5.21131 24.4295 5.20312 20.4354V19.5642C5.21131 15.5701 6.81514 11.7424 9.66267 8.92104C12.5102 6.09967 16.3688 4.51513 20.3917 4.51514H78.3221C82.3434 4.51676 86.1998 6.10221 89.045 8.92359C91.8902 11.745 93.4918 15.5718 93.4984 19.5642V20.4354Z" fill="white"></path><path d="M101.717 22.9755C101.709 23.4276 101.525 23.859 101.203 24.1793C100.882 24.4996 100.448 24.6838 99.9927 24.6933C99.7572 24.7073 99.5213 24.6733 99.2996 24.5934C99.0778 24.5136 98.8748 24.3895 98.703 24.2289C98.5313 24.0683 98.3945 23.8746 98.301 23.6595C98.2074 23.4445 98.1592 23.2128 98.1592 22.9785C98.1592 22.7443 98.2074 22.5126 98.301 22.2975C98.3945 22.0825 98.5313 21.8887 98.703 21.7281C98.8748 21.5675 99.0778 21.4435 99.2996 21.3636C99.5213 21.2838 99.7572 21.2498 99.9927 21.2638C100.447 21.2717 100.881 21.4546 101.203 21.7739C101.525 22.0932 101.709 22.524 101.717 22.9755" fill="white"></path><path d="M111.844 15.1043C111.059 15.2731 110.256 15.3473 109.453 15.3252C110.732 15.8712 111.356 16.6197 111.356 17.9203C111.356 19.8528 109.762 21.2638 107.148 21.2638C106.76 21.2739 106.372 21.2368 105.993 21.1534C105.888 21.2089 105.8 21.291 105.739 21.3913C105.677 21.4915 105.643 21.6064 105.64 21.7239C105.64 22.0307 105.776 22.3374 106.746 22.3374H108.297C110.646 22.3374 112.153 23.5644 112.153 25.2393C112.153 27.3068 110.299 28.5583 106.833 28.5583C103.366 28.5583 102.273 27.5706 102.05 25.9203C102.043 25.8473 102.052 25.7736 102.076 25.7041C102.099 25.6347 102.137 25.5709 102.187 25.5171C102.238 25.4632 102.299 25.4205 102.367 25.3917C102.434 25.3628 102.508 25.3485 102.582 25.3497H104.269C104.384 25.3491 104.496 25.3887 104.585 25.4615C104.674 25.5343 104.735 25.6359 104.757 25.7485C104.886 26.362 105.418 26.5828 106.926 26.5828C108.699 26.5828 109.095 26.0982 109.095 25.4601C109.095 24.8221 108.699 24.4663 107.679 24.4663H106.215C104.003 24.4663 103.125 23.5644 103.125 22.4908C103.152 22.0987 103.275 21.719 103.484 21.3853C103.693 21.0515 103.982 20.7738 104.324 20.5767C103.764 20.3402 103.291 19.9398 102.966 19.429C102.641 18.9182 102.481 18.3212 102.507 17.7178C102.507 15.454 104.324 14.0368 106.938 14.0368C108.408 14.1137 109.869 13.7686 111.146 13.043C111.215 13.0102 111.291 12.9921 111.367 12.99C111.444 12.9878 111.52 13.0016 111.591 13.0305C111.662 13.0594 111.727 13.1027 111.78 13.1577C111.833 13.2127 111.874 13.2781 111.9 13.3497L112.252 14.454C112.273 14.5229 112.28 14.5955 112.271 14.6671C112.262 14.7387 112.239 14.8076 112.201 14.8695C112.164 14.9313 112.114 14.9847 112.055 15.0263C111.995 15.0678 111.928 15.0964 111.857 15.1105L111.844 15.1043ZM105.48 17.6626C105.48 18.7608 106.098 19.3558 107.024 19.3558C107.951 19.3558 108.532 18.7424 108.532 17.6197C108.532 16.497 108.044 15.9878 107.024 15.9878C106.808 15.9819 106.592 16.0224 106.392 16.1065C106.193 16.1906 106.014 16.3163 105.867 16.4752C105.721 16.634 105.61 16.8222 105.543 17.0271C105.477 17.2319 105.455 17.4487 105.48 17.6626" fill="white"></path><path d="M121.917 20.2456H115.67C115.849 22.0493 116.739 22.534 117.975 22.534C118.685 22.5183 119.376 22.3058 119.97 21.9205C120.082 21.8504 120.215 21.8224 120.345 21.8415C120.476 21.8607 120.595 21.9257 120.681 22.0248L121.299 22.8837C121.342 22.9409 121.372 23.0062 121.389 23.0756C121.405 23.145 121.407 23.217 121.394 23.2871C121.382 23.3573 121.354 23.4241 121.315 23.4834C121.275 23.5427 121.223 23.5934 121.163 23.6321C120.134 24.3347 118.915 24.7112 117.666 24.7119C114.298 24.7119 112.617 22.5524 112.617 19.4358C112.617 16.4174 114.255 14.0493 117.313 14.0493C120.193 14.0493 121.96 15.9389 121.96 19.172C121.968 19.5304 121.954 19.889 121.917 20.2456ZM119.037 18.3315C118.994 16.9696 118.599 16.0248 117.4 16.0248C116.38 16.0248 115.806 16.6383 115.67 18.4788H119.037V18.3315Z" fill="white"></path><path d="M29.5305 17.4665V24.945C29.5305 25.014 29.5167 25.0823 29.4899 25.146C29.4632 25.2097 29.4239 25.2674 29.3745 25.3159C29.3251 25.3644 29.2664 25.4027 29.202 25.4286C29.1375 25.4544 29.0686 25.4673 28.9991 25.4665H26.7869C26.7174 25.4673 26.6485 25.4544 26.584 25.4286C26.5196 25.4027 26.4609 25.3644 26.4115 25.3159C26.3621 25.2674 26.3228 25.2097 26.2961 25.146C26.2693 25.0823 26.2555 25.014 26.2555 24.945V18.037C26.2555 16.8714 25.8538 16.5646 25.3224 16.5646C24.6613 16.5646 24.1298 17.0923 23.6849 17.9941V24.945C23.6788 25.0824 23.6206 25.2124 23.5221 25.3091C23.4236 25.4058 23.292 25.462 23.1535 25.4665H20.8981C20.7642 25.4601 20.6382 25.402 20.547 25.3045C20.4557 25.2071 20.4066 25.078 20.4099 24.945V18.037C20.4099 16.8714 19.965 16.5646 19.4336 16.5646C18.7663 16.5646 18.2348 17.0923 17.7467 17.9941V24.945C17.7517 25.0774 17.7039 25.2065 17.6137 25.3041C17.5234 25.4018 17.398 25.4601 17.2647 25.4665H15.0031C14.8647 25.462 14.733 25.4058 14.6345 25.3091C14.536 25.2124 14.4778 25.0824 14.4717 24.945V15.0493C14.4763 14.9108 14.5338 14.7793 14.6325 14.6813C14.7311 14.5834 14.8636 14.5263 15.0031 14.5217H16.9063C17.028 14.5197 17.146 14.5635 17.2366 14.6443C17.3272 14.7251 17.3836 14.8369 17.3945 14.9573L17.5737 15.8407C17.9266 15.3257 18.4025 14.9054 18.9589 14.6175C19.5152 14.3295 20.1348 14.1828 20.7622 14.1904C21.3243 14.1642 21.8802 14.3158 22.35 14.6234C22.8197 14.931 23.179 15.3787 23.376 15.9021C23.7363 15.3697 24.2242 14.9346 24.7959 14.6359C25.3675 14.3371 26.005 14.184 26.651 14.1904C28.3812 14.1904 29.5305 15.4174 29.5305 17.4665" fill="#414042"></path><path d="M38.1256 25.4906C37.2852 28.1102 35.5551 29.693 32.4098 29.9998C32.2754 30.0124 32.1413 29.9737 32.0345 29.8917C31.9278 29.8097 31.8565 29.6904 31.8351 29.5581L31.6559 28.2636C31.6343 28.1352 31.6642 28.0035 31.7393 27.8968C31.8144 27.7901 31.9287 27.7169 32.0576 27.693C33.5653 27.4292 34.3192 26.9446 34.8444 26.0182C34.6251 25.9104 34.4299 25.7598 34.2706 25.5753C34.1113 25.3908 33.9912 25.1763 33.9176 24.9446L30.8279 15.2022C30.8 15.1249 30.7914 15.0421 30.8027 14.9608C30.814 14.8795 30.8449 14.802 30.8929 14.7352C30.9408 14.6683 31.0044 14.6139 31.078 14.5766C31.1517 14.5394 31.2334 14.5204 31.3161 14.5212H33.6642C33.7867 14.523 33.9052 14.5648 34.0013 14.6402C34.0974 14.7157 34.1657 14.8205 34.1956 14.9384L36.0494 23.3801L38.1318 14.9139C38.1578 14.804 38.2199 14.7057 38.3082 14.6347C38.3966 14.5636 38.5063 14.5237 38.62 14.5212H40.8754C40.9616 14.5124 41.0487 14.5256 41.1282 14.5596C41.2078 14.5937 41.2773 14.6474 41.33 14.7158C41.3827 14.7841 41.4168 14.8647 41.4292 14.9499C41.4416 15.035 41.4317 15.1219 41.4006 15.2022L38.1256 25.4906Z" fill="#414042"></path><path d="M52.0351 24.0427L51.5902 25.3617C51.5499 25.477 51.4706 25.5748 51.3658 25.6386C51.2611 25.7024 51.1373 25.7281 51.0155 25.7114C50.5407 25.6837 50.0832 25.5249 49.6945 25.2528C49.3058 24.9807 49.0014 24.6062 48.8157 24.1715C48.4569 24.7128 47.9606 25.1504 47.3768 25.4402C46.7931 25.7299 46.1427 25.8616 45.4913 25.8218C45.0229 25.8547 44.5527 25.7896 44.1112 25.6307C43.6697 25.4718 43.2668 25.2227 42.9284 24.8994C42.59 24.5762 42.3237 24.186 42.1468 23.7542C41.9698 23.3223 41.8861 22.8584 41.9011 22.3924C41.9011 20.0182 43.7178 18.7114 47.0855 18.7114H48.1978V18.2268C48.1978 16.9323 47.7096 16.5396 46.344 16.5396C45.53 16.5709 44.7248 16.7176 43.9526 16.9752C43.8165 17.0212 43.6677 17.013 43.5375 16.9523C43.4073 16.8917 43.3059 16.7834 43.2544 16.6501L42.8527 15.466C42.8066 15.3374 42.8132 15.196 42.8709 15.0721C42.9287 14.9482 43.0331 14.8517 43.1617 14.8034C44.35 14.4198 45.589 14.2131 46.8383 14.1899C50.033 14.1899 51.4048 15.509 51.4048 18.0611V22.3065C51.4048 22.92 51.5346 23.2697 51.8003 23.4721C51.8946 23.5305 51.9673 23.6177 52.0074 23.7206C52.0476 23.8235 52.0529 23.9365 52.0227 24.0427H52.0351ZM48.1978 22.4353V20.5028H47.3821C45.8806 20.5028 45.1699 21.0304 45.1699 22.1041C45.1462 22.2823 45.1622 22.4635 45.2168 22.6349C45.2713 22.8063 45.3632 22.9637 45.4858 23.0959C45.6084 23.2282 45.7588 23.3321 45.9263 23.4003C46.0938 23.4685 46.2744 23.4993 46.4552 23.4906C46.8153 23.4907 47.1685 23.3922 47.4759 23.2061C47.7833 23.0199 48.0331 22.7533 48.1978 22.4353Z" fill="#414042"></path><path d="M62.9356 25.4663H61.0819C61.0195 25.4688 60.9572 25.4587 60.8988 25.4367C60.8404 25.4147 60.7871 25.3812 60.7421 25.3382C60.6971 25.2952 60.6613 25.2437 60.6368 25.1866C60.6124 25.1296 60.5998 25.0682 60.5999 25.0062L60.4639 24.0859C60.1158 24.6431 59.624 25.0977 59.0396 25.403C58.4551 25.7082 57.7992 25.8529 57.1395 25.8221C55.1065 25.8221 54.087 24.5031 54.087 22.3681V15.0491C54.0861 14.9796 54.0993 14.9106 54.1257 14.8463C54.1521 14.7819 54.1912 14.7234 54.2408 14.6742C54.2903 14.6251 54.3492 14.5862 54.414 14.56C54.4789 14.5338 54.5484 14.5207 54.6184 14.5215H56.8491C56.9885 14.5261 57.121 14.5832 57.2197 14.6811C57.3184 14.7791 57.3759 14.9107 57.3805 15.0491V21.9755C57.3805 23.0737 57.7327 23.405 58.4433 23.405C58.8266 23.3682 59.193 23.2306 59.5048 23.0063C59.8165 22.782 60.0623 22.4791 60.2168 22.1289V15.0491C60.2159 14.9796 60.2291 14.9106 60.2555 14.8463C60.2819 14.7819 60.3211 14.7234 60.3706 14.6742C60.4201 14.6251 60.479 14.5862 60.5438 14.56C60.6087 14.5338 60.6782 14.5207 60.7482 14.5215H62.9665C63.036 14.5215 63.1048 14.5352 63.169 14.5618C63.2331 14.5884 63.2913 14.6273 63.3401 14.6764C63.389 14.7255 63.4275 14.7837 63.4536 14.8477C63.4796 14.9117 63.4926 14.9801 63.4918 15.0491V24.9448C63.4926 25.0135 63.4796 25.0817 63.4535 25.1454C63.4274 25.209 63.3887 25.2668 63.3398 25.3154C63.2908 25.364 63.2326 25.4024 63.1685 25.4283C63.1044 25.4542 63.0357 25.4671 62.9665 25.4663" fill="#414042"></path><path d="M72.9153 24.54C72.9484 24.6006 72.9689 24.6672 72.9756 24.7358C72.9823 24.8044 72.975 24.8737 72.9543 24.9395C72.9335 25.0053 72.8997 25.0662 72.8548 25.1188C72.8099 25.1714 72.7548 25.2145 72.6929 25.2455C71.9119 25.6418 71.0487 25.8519 70.1717 25.859C67.7371 25.859 66.5383 24.4725 66.5383 21.902V16.8038H65.5002C65.4302 16.8047 65.3607 16.7916 65.2959 16.7653C65.231 16.7391 65.1721 16.7003 65.1226 16.6511C65.0731 16.602 65.034 16.5435 65.0075 16.4791C64.9811 16.4147 64.968 16.3457 64.9688 16.2762V15.0492C64.968 14.9797 64.9811 14.9107 65.0075 14.8464C65.034 14.782 65.0731 14.7235 65.1226 14.6743C65.1721 14.6252 65.231 14.5863 65.2959 14.5601C65.3607 14.5339 65.4302 14.5208 65.5002 14.5216H66.5198V12.6259C66.5271 12.4955 66.5797 12.3716 66.6687 12.2754C66.7578 12.1791 66.8776 12.1166 67.0079 12.0983L69.2263 11.859C69.2983 11.8494 69.3716 11.8552 69.4411 11.8761C69.5107 11.897 69.5749 11.9325 69.6294 11.9802C69.6839 12.0279 69.7274 12.0867 69.757 12.1526C69.7866 12.2185 69.8016 12.29 69.801 12.3621V14.5216H71.7474C71.8221 14.5247 71.8953 14.5437 71.9619 14.5774C72.0286 14.6112 72.0871 14.6588 72.1334 14.7171C72.1798 14.7753 72.2129 14.8428 72.2305 14.915C72.2482 14.9872 72.2499 15.0622 72.2356 15.1351L72.0564 16.3621C72.0321 16.4845 71.9659 16.5947 71.869 16.6741C71.7722 16.7536 71.6506 16.7972 71.525 16.7977H69.8257V21.8161C69.8257 22.8713 70.1779 23.2455 70.8885 23.2455C71.1483 23.2454 71.4051 23.1911 71.6424 23.086C71.7608 23.0397 71.8921 23.0371 72.0123 23.0788C72.1325 23.1204 72.2337 23.2036 72.2974 23.313L72.9153 24.54Z" fill="#414042"></path><path d="M84.2414 20.0182C84.2414 23.509 82.2023 25.8218 78.8346 25.8218C75.4669 25.8218 73.4277 23.6685 73.4277 19.9936C73.4277 16.4967 75.4669 14.1899 78.8346 14.1899C82.2023 14.1899 84.2414 16.3249 84.2414 20.0182ZM76.8263 20.0182C76.8263 22.4353 77.4937 23.4476 78.8222 23.4476C80.1508 23.4476 80.8119 22.3924 80.8119 20.0427C80.8119 17.5887 80.1508 16.5887 78.8222 16.5887C77.4937 16.5887 76.8263 17.6439 76.8263 20.0182" fill="#414042"></path></svg>