<svg width="22" height="16" viewBox="0 0 22 16" fill="none" xmlns="http://www.w3.org/2000/svg">
<path d="M6.448 12.665C6.44598 11.8924 6.17796 11.1441 5.689 10.546L6.56 9.47498C7.09609 10.0582 7.47287 10.7698 7.65401 11.541C7.73565 11.9098 7.77722 12.2863 7.778 12.664C7.77533 12.8376 7.84162 13.0052 7.96234 13.1301C8.08306 13.2549 8.24837 13.3268 8.422 13.33L14.502 13.33C14.7535 14.0982 15.239 14.7686 15.8904 15.2471C16.5419 15.7257 17.3267 15.9886 18.135 15.999C19.1776 15.9795 20.1701 15.5476 20.8949 14.7979C21.6197 14.0481 22.0178 13.0417 22.002 11.999C22.0181 10.9562 21.62 9.9496 20.8952 9.1998C20.1703 8.45 19.1777 8.01818 18.135 7.99898C17.0919 8.01766 16.0988 8.44925 15.3735 9.19911C14.6483 9.94896 14.2499 10.9559 14.266 11.999H12.935C12.936 10.948 13.2417 9.91983 13.815 9.03898C13.5376 8.43408 13.1165 7.90618 12.5884 7.50129C12.0603 7.0964 11.4412 6.8268 10.785 6.71598C10.6959 6.70107 10.6108 6.66765 10.5354 6.61788C10.46 6.5681 10.3958 6.50307 10.347 6.42698L8.87801 4.15098C8.55697 3.64693 8.102 3.24216 7.564 2.98198C7.564 2.98698 7.555 2.98898 7.549 2.99498C7.21771 2.82741 6.85902 2.72072 6.49 2.67998V1.39098C6.67489 1.35961 6.86162 1.34024 7.049 1.33298H7.778C7.9503 1.3263 8.11332 1.25316 8.23287 1.1289C8.35241 1.00464 8.41918 0.838908 8.41918 0.666479C8.41918 0.49405 8.35241 0.328321 8.23287 0.204059C8.11332 0.0797958 7.9503 0.00665379 7.778 -2.09808e-05L7.049 -2.09808e-05C5.51042 0.0408154 4.04941 0.684205 2.98052 1.79162C1.91163 2.89904 1.32036 4.38192 1.33401 5.92098C1.31783 6.48616 1.52599 7.03478 1.913 7.44698C2.08272 7.62247 2.28617 7.76183 2.51112 7.85669C2.73607 7.95155 2.97787 7.99995 3.222 7.99898C3.58794 7.9995 3.95275 8.03973 4.31001 8.11898C4.75067 8.22446 5.17142 8.40039 5.55601 8.63998L4.68501 9.71098C4.23726 9.46653 3.73611 9.33634 3.22601 9.33198C2.35693 9.34776 1.52955 9.70745 0.925217 10.3322C0.320883 10.957  -0.0111084 11.7959 0.00200462 12.665C-0.0132446 13.0978 0.0588322 13.5292 0.213936 13.9336C0.36904 14.3379 0.603994 14.7069 0.904783 15.0184C1.20557 15.33 1.56603 15.5778 1.96466 15.7471C2.3633 15.9163 2.79193 16.0035 3.225 16.0035C3.65808 16.0035 4.08671 15.9163 4.48535 15.7471C4.88398 15.5778 5.24444 15.33 5.54523 15.0184C5.84602 14.7069 6.08097 14.3379 6.23607 13.9336C6.39118 13.5292 6.46325 13.0978 6.448 12.665ZM5.158 12.665C5.16634 12.9241 5.12251 13.1822 5.02912 13.424C4.93573 13.6658 4.79468 13.8863 4.61436 14.0725C4.43404 14.2588 4.21813 14.4068 3.97946 14.5079C3.74078 14.6091 3.48421 14.6612 3.225 14.6612C2.96579 14.6612 2.70923 14.6091 2.47055 14.5079C2.23188 14.4068 2.01597 14.2588 1.83565 14.0725C1.65533 13.8863 1.51428 13.6658 1.42089 13.424C1.3275 13.1822 1.28367 12.9241 1.29201 12.665C1.28371 12.1434 1.4827 11.6399 1.8453 11.2649C2.2079 10.89 2.70447 10.6742 3.22601 10.665C3.44116 10.6676 3.65426 10.7072 3.856 10.782L2.722 12.248C2.6146 12.3871 2.56505 12.5623 2.58368 12.7371C2.60231 12.9118 2.68769 13.0726 2.822 13.186C2.88732 13.2408 2.96308 13.2818 3.0447 13.3066C3.12632 13.3313 3.21211 13.3393 3.29689 13.3299C3.38166 13.3206 3.46366 13.2941 3.53793 13.2522C3.6122 13.2103 3.6772 13.1537 3.729 13.086L4.86201 11.615C5.05447 11.9314 5.1565 12.2946 5.15701 12.665H5.158ZM20.712 11.999C20.7227 12.694 20.4575 13.365 19.9745 13.8649C19.4915 14.3648 18.83 14.6528 18.135 14.666C17.6794 14.6618 17.2331 14.5359 16.8425 14.3013C16.4518 14.0668 16.1309 13.7321 15.913 13.332H17.489C18.0105 13.3225 18.5069 13.1067 18.8694 12.7317C19.232 12.3568 19.431 11.8535 19.423 11.332C19.4264 11.2452 19.4123 11.1586 19.3814 11.0775C19.3506 10.9963 19.3037 10.9222 19.2435 10.8596C19.1833 10.797 19.1111 10.7472 19.0312 10.7131C18.9513 10.6791 18.8653 10.6616 18.7785 10.6616C18.6917 10.6616 18.6057 10.6791 18.5258 10.7131C18.4459 10.7472 18.3737 10.797 18.3135 10.8596C18.2533 10.9222 18.2064 10.9963 18.1756 11.0775C18.1447 11.1586 18.1306 11.2452 18.134 11.332C18.1367 11.5059 18.0703 11.6738 17.9494 11.7988C17.8285 11.9238 17.6629 11.9958 17.489 11.999H15.556C15.5453 11.3036 15.8108 10.6323 16.2942 10.1324C16.7777 9.63245 17.4397 9.3446 18.135 9.33198C18.83 9.34513 19.4915 9.6332 19.9745 10.1331C20.4575 10.633 20.7227 11.3039 20.712 11.999ZM18.779 6.66398C19.6476 6.6482 20.4746 6.28875 21.0787 5.66439C21.6828 5.04003 22.0148 4.20167 22.002 3.33298C22.0035 3.24661 21.9879 3.16081 21.9561 3.08048C21.9244 3.00014 21.8771 2.92686 21.817 2.86481C21.7569 2.80277 21.6852 2.75318 21.6059 2.71889C21.5266 2.6846 21.4414 2.66628 21.355 2.66498H18.527L14.391 5.20698C13.852 5.53262 13.2826 5.80523 12.691 6.02098C13.5193 6.47782 14.2139 7.14312 14.706 7.95098C14.706 7.96198 14.706 7.97298 14.716 7.98398C15.2653 7.49512 15.9099 7.12543 16.6092 6.89824C17.3085 6.67104 18.0473 6.59128 18.779 6.66398ZM13.73 4.06398L14.759 3.42298C14.3582 2.78754 13.804 2.26304 13.1475 1.89767C12.4911 1.5323 11.7533 1.33778 11.002 1.33198C10.1495 1.33894 9.31785 1.59589 8.61 2.07098C9.14508 2.41934 9.60204 2.87495 9.952 3.40898L11.052 5.12398C11.9987 4.92583 12.9045 4.56697 13.73 4.06298V4.06398Z" fill="currentColor"/>
</svg>
