<svg width="22" height="18" viewBox="0 0 22 18" fill="none" xmlns="http://www.w3.org/2000/svg">
<path d="M7.735 14.2707C7.69898 13.2695 7.27574 12.3213 6.55438 11.6257C5.83302 10.9301 4.86981 10.5414 3.8675 10.5414C2.86519 10.5414 1.90198 10.9301 1.18062 11.6257C0.459259 12.3213 0.0360222 13.2695 0 14.2707C0.0360222 15.2719 0.459259 16.2201 1.18062 16.9157C1.90198 17.6113 2.86519 18 3.8675 18C4.86981 18 5.83302 17.6113 6.55438 16.9157C7.27574 16.2201 7.69898 15.2719 7.735 14.2707ZM4.513 14.2707C4.51779 14.3992 4.48404 14.5262 4.41609 14.6353C4.34814 14.7445 4.2491 14.8308 4.13169 14.8833C4.01427 14.9358 3.88384 14.9519 3.75716 14.9298C3.63047 14.9076 3.51331 14.848 3.42073 14.7588C3.32815 14.6696 3.26437 14.5547 3.23759 14.429C3.2108 14.3032 3.22224 14.1724 3.27043 14.0532C3.31862 13.934 3.40136 13.8319 3.50801 13.7601C3.61467 13.6882 3.74039 13.6499 3.869 13.65C4.03655 13.6473 4.19832 13.7112 4.31885 13.8275C4.43939 13.9439 4.50884 14.1033 4.512 14.2707H4.513ZM22 13.0303C21.9742 11.6885 21.4166 10.4119 20.4496 9.48091C19.4826 8.54994 18.1854 8.04083 16.843 8.06545C15.5011 8.0411 14.2044 8.55022 13.2378 9.48097C12.2712 10.4117 11.7138 11.688 11.688 13.0293C11.7135 14.3706 12.2708 15.6469 13.2375 16.5775C14.2042 17.5082 15.5011 18.017 16.843 17.9921C18.1849 18.017 19.4819 17.5084 20.4488 16.578C21.4158 15.6476 21.9737 14.3716 22 13.0303V13.0303ZM18.778 13.0303C18.7685 13.5338 18.5594 14.013 18.1965 14.3624C17.8336 14.7118 17.3468 14.9028 16.843 14.8934C16.3394 14.9025 15.8528 14.7114 15.4901 14.362C15.1275 14.0126 14.9185 13.5336 14.909 13.0303C14.919 12.5273 15.1282 12.0487 15.4908 11.6998C15.8534 11.3509 16.3397 11.16 16.843 11.1691C17.3464 11.1597 17.833 11.3505 18.1958 11.6994C18.5586 12.0484 18.768 12.5271 18.778 13.0303ZM10.4 14.8934V13.0303H8.863C8.9697 13.4352 9.02415 13.852 9.025 14.2707C9.0256 14.4783 9.01224 14.6857 8.985 14.8914L10.4 14.8934ZM17.489 13.0303C17.4938 12.9019 17.4601 12.775 17.3922 12.6659C17.3244 12.5568 17.2254 12.4704 17.1081 12.4179C16.9908 12.3654 16.8605 12.3491 16.7339 12.3711C16.6073 12.3931 16.4901 12.4525 16.3974 12.5415C16.3048 12.6305 16.2409 12.7452 16.2138 12.8708C16.1868 12.9964 16.198 13.1272 16.2459 13.2464C16.2937 13.3657 16.3762 13.4679 16.4826 13.54C16.589 13.612 16.7145 13.6507 16.843 13.651C17.0109 13.6539 17.1732 13.5903 17.2942 13.474C17.4153 13.3576 17.4853 13.1981 17.489 13.0303ZM10.529 11.7898C10.8563 10.3662 11.6612 9.09746 12.8099 8.19443C13.9585 7.29141 15.3817 6.80851 16.843 6.826C18.3304 6.82407 19.775 7.32382 20.943 8.24437L21.764 7.28679C20.4674 6.26889 18.8869 5.67797 17.2403 5.59544C15.5937 5.51291 13.962 5.94284 12.57 6.826H3.864C3.19403 6.81528 2.54707 7.07013 2.06455 7.53483C1.58202 7.99954 1.30319 8.6363 1.289 9.30591V9.97361C2.07704 9.53427 2.96467 9.30437 3.867 9.30591C4.7621 9.30064 5.64341 9.52642 6.42563 9.9614C7.20785 10.3964 7.86449 11.0258 8.332 11.7888L10.529 11.7898ZM6.446 5.58454V3.72336C6.43602 3.22034 6.22676 2.74184 5.86416 2.3929C5.50156 2.04395 5.01525 1.85308 4.512 1.86218V3.09864C4.67981 3.09569 4.84195 3.15938 4.96286 3.27574C5.08377 3.3921 5.15358 3.55163 5.157 3.71936V5.58454H6.446ZM12.2 5.58454C14.1898 4.44004 16.5323 4.07054 18.778 4.547L18.778 1.24045H20.066V0H9.752V1.24045H10.874L9.69 5.58454H12.2Z" fill="currentColor"/>
</svg>
